<?xml version="1.0" encoding="UTF-8" standalone="no"?>
<!DOCTYPE svg PUBLIC "-//W3C//DTD SVG 1.1//EN" "http://www.w3.org/Graphics/SVG/1.1/DTD/svg11.dtd">
<svg width="100%" height="100%" viewBox="0 0 180 184" version="1.1" xmlns="http://www.w3.org/2000/svg"
     xml:space="preserve"
     style="fill-rule:evenodd;clip-rule:evenodd;stroke-linejoin:round;stroke-miterlimit:1.41421;">
    <g transform="matrix(0.1,0,0,-0.1,-8.80149,193.12)">
        <path d="M506,1914C497,1906 490,1895 490,1890C490,1877 564,1787 685,1650C890,1419 1123,1153 1205,1055C1233,1022 1257,993 1260,990C1263,987 1304,938 1351,880C1629,538 1780,303 1783,210C1785,175 1781,165 1767,162C1716,152 1552,285 1483,393C1405,515 1092,943 946,1126C923,1155 869,1224 825,1280C781,1336 687,1454 615,1544C305,1930 302,1934 286,1893C282,1884 290,1860 306,1836C356,1760 573,1445 580,1440C583,1437 612,1397 645,1350C871,1022 1252,540 1451,328C1485,291 1527,213 1517,203C1492,179 1325,330 1184,505C1135,565 1059,656 1015,705C971,755 922,813 905,834C889,856 865,885 853,900C818,943 782,990 322,1600C146,1833 140,1839 105,1803C65,1764 107,1661 223,1510C295,1417 598,1072 680,990C737,933 928,718 995,635C1044,575 1087,523 1090,520C1093,517 1128,479 1167,434C1238,352 1305,250 1316,205C1341,107 1127,315 746,760C735,774 703,812 675,845C648,878 622,907 619,910C616,913 509,1044 381,1202C253,1361 144,1492 140,1495C127,1503 100,1489 100,1473C100,1465 148,1399 207,1327C526,935 830,543 830,525C830,517 782,568 649,720C577,803 507,878 394,995C328,1063 240,1138 206,1154C165,1173 120,1169 120,1145C120,1137 154,1089 196,1038C494,675 783,294 803,237C809,222 807,221 787,231C762,245 391,613 247,769C194,825 146,870 139,868C117,861 107,834 114,799C121,761 205,644 334,496C381,441 418,395 416,393C414,390 373,420 325,459C277,499 225,537 208,546C171,565 126,561 122,538C120,528 158,466 207,400C345,210 351,202 343,197C338,195 304,199 265,206C227,213 178,219 158,219C125,220 120,217 120,198C121,171 163,120 184,120C192,120 204,129 209,139C218,155 225,157 258,149C279,145 327,139 365,138C456,134 459,148 389,243C288,381 249,440 258,440C268,440 363,356 475,248C621,108 667,81 684,127C696,157 637,240 471,426C339,573 360,564 527,400C691,239 788,152 823,133C891,98 911,155 863,248C820,331 375,925 336,952C330,956 328,962 332,965C344,978 583,718 810,445C879,363 937,293 940,290C943,287 969,255 999,217C1028,180 1055,150 1060,150C1106,150 1111,190 1075,262C1061,289 1050,316 1050,322C1050,328 1089,295 1136,249C1228,158 1293,110 1321,110C1345,110 1369,135 1376,168C1379,183 1382,198 1383,203C1384,207 1408,194 1437,175C1504,130 1561,126 1578,165C1588,187 1593,189 1609,180C1620,175 1632,165 1635,160C1645,143 1737,100 1762,100C1793,100 1829,126 1841,158C1853,190 1838,263 1804,334C1774,397 1774,400 1808,367C1841,335 1863,339 1880,379C1903,435 1836,584 1704,772C1674,814 1650,851 1650,855C1650,859 1685,825 1729,779C1785,721 1812,699 1824,703C1833,707 1840,717 1840,726C1840,735 1776,831 1697,939C1618,1047 1532,1164 1507,1200C1481,1236 1417,1324 1365,1395C1210,1606 1179,1652 1182,1662C1186,1673 1323,1531 1590,1240C1805,1004 1838,974 1857,986C1870,995 1875,1009 1874,1042C1871,1116 1775,1261 1537,1548C1481,1616 1431,1679 1426,1688C1417,1703 1418,1704 1436,1690C1457,1674 1661,1487 1755,1398C1833,1323 1870,1321 1856,1393C1849,1428 1768,1542 1674,1647C1613,1716 1560,1780 1560,1786C1560,1792 1595,1775 1693,1722C1747,1693 1803,1668 1818,1667C1864,1664 1856,1698 1796,1769C1766,1804 1736,1845 1730,1861C1716,1893 1699,1898 1680,1875C1669,1862 1670,1853 1683,1824C1693,1805 1700,1788 1700,1785C1700,1783 1656,1807 1603,1837C1463,1917 1457,1920 1437,1920C1392,1920 1414,1862 1495,1770C1679,1560 1687,1541 1532,1682C1321,1876 1180,1959 1180,1891C1180,1882 1226,1822 1281,1759C1337,1697 1394,1632 1409,1615C1537,1470 1770,1166 1770,1144C1770,1126 1778,1118 1545,1370C1338,1594 1092,1844 1038,1884C998,1914 957,1916 952,1888C950,1879 975,1836 1006,1793C1102,1663 1132,1623 1274,1425C1350,1321 1418,1227 1426,1218C1433,1208 1436,1200 1432,1200C1421,1200 1313,1313 1090,1555C831,1835 744,1923 729,1918C701,1909 710,1879 755,1825C781,1795 799,1770 795,1770C791,1770 763,1793 732,1821C626,1916 542,1951 506,1914ZM630,1834C748,1756 1175,1255 1399,933C1442,870 1404,902 1335,986C1297,1033 1258,1079 1250,1088C1242,1098 1181,1168 1115,1245C1049,1322 955,1430 905,1485C723,1689 615,1812 602,1831C586,1854 597,1855 630,1834ZM1123,1407C1130,1400 1162,1363 1195,1325C1228,1286 1257,1253 1260,1250C1268,1243 1430,1043 1455,1009C1466,994 1507,940 1546,889C1687,702 1736,628 1787,530C1840,427 1811,459 1657,675C1487,913 1369,1072 1148,1358C1121,1392 1102,1420 1105,1420C1109,1420 1117,1414 1123,1407Z" style="fill-rule:nonzero;"/>
    </g>
</svg>
