<?xml version="1.0" standalone="no"?>
<!DOCTYPE svg PUBLIC "-//W3C//DTD SVG 20010904//EN"
 "http://www.w3.org/TR/2001/REC-SVG-20010904/DTD/svg10.dtd">
<svg version="1.0" xmlns="http://www.w3.org/2000/svg"
 width="198.000000pt" height="200.000000pt" viewBox="0 0 198.000000 200.000000"
 preserveAspectRatio="xMidYMid meet">
<metadata>
Created by potrace 1.15, written by Peter Selinger 2001-2017
</metadata>
<g transform="translate(0.000000,200.000000) scale(0.100000,-0.100000)"
fill="#000000" stroke="none">
<path d="M506 1914 c-9 -8 -16 -19 -16 -24 0 -13 74 -103 195 -240 205 -231
438 -497 520 -595 28 -33 52 -62 55 -65 3 -3 44 -52 91 -110 278 -342 429
-577 432 -670 2 -35 -2 -45 -16 -48 -51 -10 -215 123 -284 231 -78 122 -391
550 -537 733 -23 29 -77 98 -121 154 -44 56 -138 174 -210 264 -310 386 -313
390 -329 349 -4 -9 4 -33 20 -57 50 -76 267 -391 274 -396 3 -3 32 -43 65 -90
226 -328 607 -810 806 -1022 34 -37 76 -115 66 -125 -25 -24 -192 127 -333
302 -49 60 -125 151 -169 200 -44 50 -93 108 -110 129 -16 22 -40 51 -52 66
-35 43 -71 90 -531 700 -176 233 -182 239 -217 203 -40 -39 2 -142 118 -293
72 -93 375 -438 457 -520 57 -57 248 -272 315 -355 49 -60 92 -112 95 -115 3
-3 38 -41 77 -86 71 -82 138 -184 149 -229 25 -98 -189 110 -570 555 -11 14
-43 52 -71 85 -27 33 -53 62 -56 65 -3 3 -110 134 -238 292 -128 159 -237 290
-241 293 -13 8 -40 -6 -40 -22 0 -8 48 -74 107 -146 319 -392 623 -784 623
-802 0 -8 -48 43 -181 195 -72 83 -142 158 -255 275 -66 68 -154 143 -188 159
-41 19 -86 15 -86 -9 0 -8 34 -56 76 -107 298 -363 587 -744 607 -801 6 -15 4
-16 -16 -6 -25 14 -396 382 -540 538 -53 56 -101 101 -108 99 -22 -7 -32 -34
-25 -69 7 -38 91 -155 220 -303 47 -55 84 -101 82 -103 -2 -3 -43 27 -91 66
-48 40 -100 78 -117 87 -37 19 -82 15 -86 -8 -2 -10 36 -72 85 -138 138 -190
144 -198 136 -203 -5 -2 -39 2 -78 9 -38 7 -87 13 -107 13 -33 1 -38 -2 -38
-21 1 -27 43 -78 64 -78 8 0 20 9 25 19 9 16 16 18 49 10 21 -4 69 -10 107
-11 91 -4 94 10 24 105 -101 138 -140 197 -131 197 10 0 105 -84 217 -192 146
-140 192 -167 209 -121 12 30 -47 113 -213 299 -132 147 -111 138 56 -26 164
-161 261 -248 296 -267 68 -35 88 22 40 115 -43 83 -488 677 -527 704 -6 4 -8
10 -4 13 12 13 251 -247 478 -520 69 -82 127 -152 130 -155 3 -3 29 -35 59
-73 29 -37 56 -67 61 -67 46 0 51 40 15 112 -14 27 -25 54 -25 60 0 6 39 -27
86 -73 92 -91 157 -139 185 -139 24 0 48 25 55 58 3 15 6 30 7 35 1 4 25 -9
54 -28 67 -45 124 -49 141 -10 10 22 15 24 31 15 11 -5 23 -15 26 -20 10 -17
102 -60 127 -60 31 0 67 26 79 58 12 32 -3 105 -37 176 -30 63 -30 66 4 33 33
-32 55 -28 72 12 23 56 -44 205 -176 393 -30 42 -54 79 -54 83 0 4 35 -30 79
-76 56 -58 83 -80 95 -76 9 4 16 14 16 23 0 9 -64 105 -143 213 -79 108 -165
225 -190 261 -26 36 -90 124 -142 195 -155 211 -186 257 -183 267 4 11 141
-131 408 -422 215 -236 248 -266 267 -254 13 9 18 23 17 56 -3 74 -99 219
-337 506 -56 68 -106 131 -111 140 -9 15 -8 16 10 2 21 -16 225 -203 319 -292
78 -75 115 -77 101 -5 -7 35 -88 149 -182 254 -61 69 -114 133 -114 139 0 6
35 -11 133 -64 54 -29 110 -54 125 -55 46 -3 38 31 -22 102 -30 35 -60 76 -66
92 -14 32 -31 37 -50 14 -11 -13 -10 -22 3 -51 10 -19 17 -36 17 -39 0 -2 -44
22 -97 52 -140 80 -146 83 -166 83 -45 0 -23 -58 58 -150 184 -210 192 -229
37 -88 -211 194 -352 277 -352 209 0 -9 46 -69 101 -132 56 -62 113 -127 128
-144 128 -145 361 -449 361 -471 0 -18 8 -26 -225 226 -207 224 -453 474 -507
514 -40 30 -81 32 -86 4 -2 -9 23 -52 54 -95 96 -130 126 -170 268 -368 76
-104 144 -198 152 -207 7 -10 10 -18 6 -18 -11 0 -119 113 -342 355 -259 280
-346 368 -361 363 -28 -9 -19 -39 26 -93 26 -30 44 -55 40 -55 -4 0 -32 23
-63 51 -106 95 -190 130 -226 93z m124 -80 c118 -78 545 -579 769 -901 43 -63
5 -31 -64 53 -38 47 -77 93 -85 102 -8 10 -69 80 -135 157 -66 77 -160 185
-210 240 -182 204 -290 327 -303 346 -16 23 -5 24 28 3z m493 -427 c7 -7 39
-44 72 -82 33 -39 62 -72 65 -75 8 -7 170 -207 195 -241 11 -15 52 -69 91
-120 141 -187 190 -261 241 -359 53 -103 24 -71 -130 145 -170 238 -288 397
-509 683 -27 34 -46 62 -43 62 4 0 12 -6 18 -13z"/>
</g>
</svg>
